<?xml version="1.0" standalone="no"?>
<!DOCTYPE svg PUBLIC "-//W3C//DTD SVG 20010904//EN"
 "http://www.w3.org/TR/2001/REC-SVG-20010904/DTD/svg10.dtd">
<svg version="1.0" xmlns="http://www.w3.org/2000/svg"
 width="273.000000pt" height="85.000000pt" viewBox="0 0 273.000000 85.000000"
 preserveAspectRatio="xMidYMid meet">

<g transform="translate(0.000000,85.000000) scale(0.100000,-0.100000)"
fill="#000000" stroke="none">
<path d="M50 710 c0 -46 2 -50 23 -50 35 0 56 -30 146 -201 75 -145 81 -160
81 -217 0 -52 -3 -63 -22 -76 -12 -9 -30 -16 -40 -16 -15 0 -18 -9 -18 -45 l0
-45 150 0 150 0 0 45 0 45 -61 0 -60 0 15 22 c10 13 16 44 16 75 0 46 12 77
87 233 l86 180 34 0 33 0 0 50 0 50 -130 0 -130 0 0 -50 c0 -47 2 -50 25 -50
14 0 28 -6 31 -14 7 -18 -87 -239 -97 -229 -6 7 -109 232 -109 240 0 2 14 3
30 3 29 0 30 1 30 50 l0 50 -135 0 -135 0 0 -50z"/>
<path d="M766 565 c-191 -68 -209 -400 -26 -492 57 -29 156 -31 215 -4 38 17
95 72 95 91 0 4 -19 19 -42 33 l-43 25 -37 -34 c-77 -70 -165 -34 -192 79 l-6
27 171 0 172 0 -6 64 c-7 73 -27 129 -60 165 -52 56 -157 76 -241 46z m146
-113 c10 -10 22 -32 27 -50 l10 -32 -105 0 c-66 0 -104 4 -104 10 0 24 32 70
58 85 33 19 89 13 114 -13z"/>
<path d="M1263 566 c-45 -15 -103 -52 -103 -67 0 -18 58 -90 65 -79 14 22 86
50 130 50 58 0 95 -32 95 -83 l0 -34 -88 -5 c-146 -9 -204 -54 -204 -160 1
-94 58 -141 163 -136 54 3 73 9 103 31 l36 28 0 -25 c0 -26 1 -26 85 -26 l85
0 0 40 c0 38 -2 40 -30 40 l-30 0 0 153 c0 139 -2 157 -22 197 -32 62 -72 83
-167 87 -46 2 -93 -3 -118 -11z m185 -329 c3 -30 -2 -43 -27 -67 -52 -53 -141
-34 -141 30 0 53 48 81 130 77 33 -2 35 -4 38 -40z"/>
<path d="M1985 571 c-36 -9 -93 -38 -117 -59 -17 -14 -18 -13 -18 21 l0 37
-90 0 -90 0 0 -45 c0 -43 1 -45 28 -45 48 0 52 -13 52 -161 0 -148 -4 -162
-56 -175 -20 -5 -24 -12 -24 -45 l0 -39 140 0 140 0 0 40 0 40 -55 0 c-59 0
-63 4 -40 34 11 15 15 49 15 132 0 111 0 113 28 132 15 11 37 22 49 26 19 6
23 2 29 -28 6 -32 10 -36 40 -37 19 -1 39 -2 46 -3 8 -1 13 27 16 92 l4 92
-34 -1 c-18 -1 -46 -4 -63 -8z"/>
<path d="M2400 569 c-14 -5 -40 -24 -57 -42 l-33 -31 0 37 0 37 -90 0 -90 0 0
-45 c0 -43 1 -45 28 -45 48 0 52 -13 52 -161 0 -148 -4 -162 -56 -175 -20 -5
-24 -12 -24 -45 l0 -39 120 0 120 0 0 40 c0 39 -1 40 -35 40 -38 0 -42 5 -20
34 11 15 15 49 15 132 l0 112 31 26 c39 33 99 36 129 6 18 -18 20 -33 20 -141
0 -131 -6 -153 -45 -163 -21 -5 -25 -12 -25 -46 l0 -40 125 0 125 0 0 40 0 40
-45 0 c-48 0 -52 4 -30 34 12 15 15 52 15 155 0 150 -10 186 -62 225 -32 23
-129 32 -168 15z"/>
</g>
</svg>
