<?xml version="1.0" standalone="no"?>
<!DOCTYPE svg PUBLIC "-//W3C//DTD SVG 20010904//EN"
 "http://www.w3.org/TR/2001/REC-SVG-20010904/DTD/svg10.dtd">
<svg version="1.0" xmlns="http://www.w3.org/2000/svg"
 width="153.000000pt" height="206.000000pt" viewBox="0 0 153.000000 206.000000"
 preserveAspectRatio="xMidYMid meet">

<g transform="translate(0.000000,206.000000) scale(0.100000,-0.100000)"
fill="#000000" stroke="none">
<path d="M255 1935 l-160 -93 1 -229 c1 -199 4 -238 22 -306 38 -139 87 -242
236 -492 l146 -244 2 -207 3 -207 105 -63 c58 -34 107 -61 110 -60 3 2 78 45
168 96 l162 93 0 193 0 193 28 19 c15 10 80 49 145 86 144 83 188 130 220 230
20 64 22 92 22 280 l0 208 -104 59 c-57 33 -108 59 -113 59 -9 0 -103 -53
-270 -151 -69 -41 -73 -54 -65 -209 3 -59 3 -126 0 -149 l-6 -42 -84 143
c-169 286 -173 297 -179 553 -2 105 -4 195 -4 201 0 11 -201 135 -217 133 -5
0 -80 -42 -168 -94z m32 -227 c7 -6 12 -77 15 -221 4 -196 6 -217 29 -277 27
-71 267 -490 285 -497 12 -4 207 103 261 143 51 38 63 97 63 296 0 92 3 168 6
168 3 0 44 -21 91 -46 l85 -47 -5 -206 c-7 -319 -18 -340 -251 -480 -86 -51
-157 -98 -157 -105 -1 -6 -1 -89 1 -184 1 -94 0 -172 -3 -172 -4 0 -45 21 -92
47 l-85 47 0 203 0 203 -127 212 c-153 257 -201 348 -236 456 -37 112 -47 190
-47 385 l0 168 78 -42 c42 -23 82 -46 89 -51z"/>
</g>
</svg>
