<?xml version="1.0" standalone="no"?>
<!DOCTYPE svg PUBLIC "-//W3C//DTD SVG 20010904//EN"
 "http://www.w3.org/TR/2001/REC-SVG-20010904/DTD/svg10.dtd">
<svg version="1.0" xmlns="http://www.w3.org/2000/svg"
 width="279.000000pt" height="311.000000pt" viewBox="0 0 279.000000 311.000000"
 preserveAspectRatio="xMidYMid meet">

<g transform="translate(0.000000,311.000000) scale(0.100000,-0.100000)"
fill="#000000" stroke="none">
<path d="M875 2955 l-160 -93 1 -229 c1 -199 4 -238 22 -306 38 -139 87 -242
236 -492 l146 -244 2 -207 3 -207 105 -63 c58 -34 107 -61 110 -60 3 2 78 45
168 96 l162 93 0 193 0 193 28 19 c15 10 80 49 145 86 144 83 188 130 220 230
20 64 22 92 22 280 l0 208 -104 59 c-57 33 -108 59 -113 59 -9 0 -103 -53
-270 -151 -69 -41 -73 -54 -65 -209 3 -59 3 -126 0 -149 l-6 -42 -84 143
c-169 286 -173 297 -179 553 -2 105 -4 195 -4 201 0 11 -201 135 -217 133 -5
0 -80 -42 -168 -94z m32 -227 c7 -6 12 -77 15 -221 4 -196 6 -217 29 -277 27
-71 267 -490 285 -497 12 -4 207 103 261 143 51 38 63 97 63 296 0 92 3 168 6
168 3 0 44 -21 91 -46 l85 -47 -5 -206 c-7 -319 -18 -340 -251 -480 -86 -51
-157 -98 -157 -105 -1 -6 -1 -89 1 -184 1 -94 0 -172 -3 -172 -4 0 -45 21 -92
47 l-85 47 0 203 0 203 -127 212 c-153 257 -201 348 -236 456 -37 112 -47 190
-47 385 l0 168 78 -42 c42 -23 82 -46 89 -51z"/>
<path d="M80 720 c0 -46 2 -50 23 -50 35 0 56 -30 146 -201 75 -145 81 -160
81 -217 0 -52 -3 -63 -22 -76 -12 -9 -30 -16 -40 -16 -15 0 -18 -9 -18 -45 l0
-45 150 0 150 0 0 45 0 45 -61 0 -60 0 15 22 c10 13 16 44 16 75 0 46 12 77
87 233 l86 180 34 0 33 0 0 50 0 50 -130 0 -130 0 0 -50 c0 -47 2 -50 25 -50
14 0 28 -6 31 -14 7 -18 -87 -239 -97 -229 -6 7 -109 232 -109 240 0 2 14 3
30 3 29 0 30 1 30 50 l0 50 -135 0 -135 0 0 -50z"/>
<path d="M796 575 c-191 -68 -209 -400 -26 -492 57 -29 156 -31 215 -4 38 17
95 72 95 91 0 4 -19 19 -42 33 l-43 25 -37 -34 c-77 -70 -165 -34 -192 79 l-6
27 171 0 172 0 -6 64 c-7 73 -27 129 -60 165 -52 56 -157 76 -241 46z m146
-113 c10 -10 22 -32 27 -50 l10 -32 -105 0 c-66 0 -104 4 -104 10 0 24 32 70
58 85 33 19 89 13 114 -13z"/>
<path d="M1293 576 c-45 -15 -103 -52 -103 -67 0 -18 58 -90 65 -79 14 22 86
50 130 50 58 0 95 -32 95 -83 l0 -34 -88 -5 c-146 -9 -204 -54 -204 -160 1
-94 58 -141 163 -136 54 3 73 9 103 31 l36 28 0 -25 c0 -26 1 -26 85 -26 l85
0 0 40 c0 38 -2 40 -30 40 l-30 0 0 153 c0 139 -2 157 -22 197 -32 62 -72 83
-167 87 -46 2 -93 -3 -118 -11z m185 -329 c3 -30 -2 -43 -27 -67 -52 -53 -141
-34 -141 30 0 53 48 81 130 77 33 -2 35 -4 38 -40z"/>
<path d="M2015 581 c-36 -9 -93 -38 -117 -59 -17 -14 -18 -13 -18 21 l0 37
-90 0 -90 0 0 -45 c0 -43 1 -45 28 -45 48 0 52 -13 52 -161 0 -148 -4 -162
-56 -175 -20 -5 -24 -12 -24 -45 l0 -39 140 0 140 0 0 40 0 40 -55 0 c-59 0
-63 4 -40 34 11 15 15 49 15 132 0 111 0 113 28 132 15 11 37 22 49 26 19 6
23 2 29 -28 6 -32 10 -36 40 -37 19 -1 39 -2 46 -3 8 -1 13 27 16 92 l4 92
-34 -1 c-18 -1 -46 -4 -63 -8z"/>
<path d="M2430 579 c-14 -5 -40 -24 -57 -42 l-33 -31 0 37 0 37 -90 0 -90 0 0
-45 c0 -43 1 -45 28 -45 48 0 52 -13 52 -161 0 -148 -4 -162 -56 -175 -20 -5
-24 -12 -24 -45 l0 -39 120 0 120 0 0 40 c0 39 -1 40 -35 40 -38 0 -42 5 -20
34 11 15 15 49 15 132 l0 112 31 26 c39 33 99 36 129 6 18 -18 20 -33 20 -141
0 -131 -6 -153 -45 -163 -21 -5 -25 -12 -25 -46 l0 -40 125 0 125 0 0 40 0 40
-45 0 c-48 0 -52 4 -30 34 12 15 15 52 15 155 0 150 -10 186 -62 225 -32 23
-129 32 -168 15z"/>
</g>
</svg>
